<?xml version="1.0" encoding="iso-8859-1"?>
<!-- Generator: Adobe Illustrator 21.1.0, SVG Export Plug-In . SVG Version: 6.00 Build 0)  -->
<svg version="1.1" id="Layer_1_1_" xmlns="http://www.w3.org/2000/svg" xmlns:xlink="http://www.w3.org/1999/xlink" x="0px" y="0px"
	 viewBox="0 0 16 16" style="enable-background:new 0 0 16 16;" xml:space="preserve">
<polygon points="10,16 10,0 3,5 0,5 0,11 3,11 "/>
<path d="M11,13.91c2.837-0.477,5-2.938,5-5.91s-2.163-5.433-5-5.91v1.011C13.279,3.566,15,5.585,15,8s-1.721,4.434-4,4.899V13.91z"
	/>
<path d="M11,9.722v1.094c1.163-0.413,2-1.512,2-2.816s-0.837-2.403-2-2.816v1.094C11.595,6.625,12,7.263,12,8
	C12,8.737,11.595,9.375,11,9.722z"/>
</svg>
